<?xml version="1.0" encoding="utf-8"?>
<!-- Generator: Adobe Illustrator 22.1.0, SVG Export Plug-In . SVG Version: 6.00 Build 0)  -->
<svg version="1.1" id="Layer_1" xmlns="http://www.w3.org/2000/svg" xmlns:xlink="http://www.w3.org/1999/xlink" x="0px" y="0px"
	 width="256px" height="256px" viewBox="0 0 256 256" style="enable-background:new 0 0 256 256;" xml:space="preserve">
<style type="text/css">
	.st0{fill:#1759AA;}
	.st1{fill:#FFC200;}
	.st2{fill:#60B2FF;}
	.st3{fill:#FFFFFF;}
</style>
<rect x="0" y="0" class="st0" width="256" height="256"/>
<g>
	<path class="st1" d="M117.6,113.95h88.47c5.22,0,9.44,4.23,9.44,9.44v56.06c0,5.22-4.23,9.44-9.44,9.44h-7.28v16.1
		c0,0-10.55-9.58-17.04-16.1H117.6c-5.22,0-9.44-4.23-9.44-9.44v-56.06C108.16,118.18,112.39,113.95,117.6,113.95z"/>
	<path class="st2" d="M171.81,63.86H58.84c-6.66,0-12.06,5.4-12.06,12.06v71.58c0,6.66,5.4,12.06,12.06,12.06h9.29v20.56
		c0,0,13.47-12.23,21.76-20.56h81.92c6.66,0,12.06-5.4,12.06-12.06V75.92C183.87,69.26,178.47,63.86,171.81,63.86z"/>
	<g id="Page-1">
		<g id="blog-post-copy-3" transform="translate(-257.000000, -1533.000000)">
			<g id="Group-3" transform="translate(247.000000, 1349.000000)">
				<g id="Group-2" transform="translate(2.000000, 171.000000)">
					<g id="np_heart_888700_000000" transform="translate(8.000000, 13.000000)">
						<path id="Path" class="st3" d="M121.77,94.14c-1.84-3.39-13.35-14.75-26.71,1.69c-14.02-16.44-24.87-5.09-26.71-1.69
							c-3.34,6.27-1.34,15.76,3.34,20.34l23.37,23.73l23.37-23.73C123.11,109.9,125.11,100.41,121.77,94.14L121.77,94.14z"/>
					</g>
				</g>
			</g>
		</g>
	</g>
	<g>
		<path class="st3" d="M139.11,121.54c0.78-1.22,2.04-2.38,3.77-3.5l9.7-6.29c1.25-0.8,2.29-1.82,3.12-3.05
			c0.83-1.23,1.25-2.68,1.25-4.34c0-2.37-0.7-4.3-2.11-5.78c-1.41-1.49-3.33-2.23-5.76-2.23c-1.5,0-2.88,0.36-4.13,1.08
			c-1.25,0.72-2.23,1.7-2.95,2.95c-0.72,1.25-1.08,2.62-1.08,4.13c0,0.51,0.02,0.9,0.05,1.15h-2.59l-0.05-0.86
			c0-2.11,0.47-3.98,1.42-5.62c0.94-1.63,2.23-2.9,3.86-3.79c1.63-0.9,3.46-1.34,5.47-1.34c2.08,0,3.91,0.45,5.5,1.34
			c1.58,0.9,2.81,2.11,3.67,3.65s1.3,3.26,1.3,5.18c0,2.3-0.53,4.22-1.58,5.76c-1.06,1.54-2.45,2.86-4.18,3.98l-10.18,6.58
			c-1.25,0.8-2.03,1.63-2.35,2.5c-0.32,0.86-0.48,1.57-0.48,2.11h18.96v2.3h-21.79v-1.1C137.93,124.36,138.33,122.76,139.11,121.54z
			"/>
	</g>
</g>
</svg>
